<svg width="1400" height="1105" xmlns="http://www.w3.org/2000/svg" xmlns:xlink="http://www.w3.org/1999/xlink"><defs><radialGradient cx="100%" cy="78.934%" fx="100%" fy="78.934%" r="194.771%" gradientTransform="matrix(-.56934 .19265 -.09885 -.86776 1.647 1.282)" id="c"><stop stop-color="#34CFC2" offset="0%"/><stop stop-color="#001E61" offset="100%"/><stop stop-color="#001E61" offset="100%"/></radialGradient><radialGradient cx="0%" cy="38.459%" fx="0%" fy="38.459%" r="109.156%" gradientTransform="matrix(-.58021 0 0 -.88432 0 .725)" id="e"><stop stop-color="#34CFC2" offset="0%"/><stop stop-color="#001E61" offset="100%"/><stop stop-color="#001E61" offset="100%"/></radialGradient><radialGradient cx="17.342%" cy="86.928%" fx="17.342%" fy="86.928%" r="129.751%" gradientTransform="matrix(-.48811 0 0 -.51312 .258 1.315)" id="f"><stop stop-color="#34CFC2" offset="0%"/><stop stop-color="#001E61" offset="100%"/><stop stop-color="#001E61" offset="100%"/></radialGradient><radialGradient cx="21.063%" cy="94.611%" fx="21.063%" fy="94.611%" r="128.961%" gradientTransform="matrix(-.4911 0 0 -.51312 .314 1.432)" id="g"><stop stop-color="#34CFC2" offset="0%"/><stop stop-color="#001E61" offset="100%"/><stop stop-color="#001E61" offset="100%"/></radialGradient><filter x="-2.3%" y="-4%" width="104.6%" height="107.9%" filterUnits="objectBoundingBox" id="d"><feGaussianBlur stdDeviation="21" in="SourceGraphic"/></filter><path id="a" d="M0 0h1400v1105H0z"/></defs><g fill="none" fill-rule="evenodd"><mask id="b" fill="#fff"><use xlink:href="#a"/></mask><g mask="url(#b)"><path d="M263.876 1948.437c100.092 153.14 209.697 215.978 740.21 50.4 530.513-165.576 996.413 85.58 1386.276 122.436 389.864 36.856 742.244-307.434 454.14-918.816C2556.398 591.075 1766.516 440.3 1402.957 587.16 1039.397 734.018 735.6 870.538 465.08 1202.457c-270.519 331.918-301.297 592.84-201.204 745.98z" fill="url(#c)" opacity=".058" filter="url(#d)" transform="rotate(27 2252.257 -245.147)"/><path d="M939.445 1397.242c58.343 89.263 122.23 125.89 431.459 29.378 309.228-96.513 580.795 49.883 808.041 71.366 227.246 21.483 432.644-179.2 264.712-535.566-167.932-356.366-628.343-444.25-840.257-358.648-211.914 85.602-388.993 165.178-546.675 358.648-157.682 193.471-175.622 345.559-117.28 434.822z" fill="url(#e)" opacity=".115" transform="translate(-641.679 -476.508)"/><path d="M1037.18 1255.729c42.902 99.249 129.298 174.564 387.975 99.82 258.677-74.745 341.866-73.542 574.172 12.479 232.306 86.02 622.005-17.293 458.77-318.321-163.233-301.028-473.21-398.084-595.966-366.93-122.756 31.155-92.724 206.931-347.025 218.662-254.3 11.731-329.668 27.839-398.424 84.773-68.755 56.934-122.406 170.267-79.503 269.517z" fill="url(#f)" opacity=".384" transform="translate(-641.679 -476.508)"/><path d="M1185.438 1148.478c0 141.163 139.05 181.567 347.71 110.567 208.66-71 265.586 71.062 522.052 71.062s189.602-240.617 73.176-357.186c-116.427-116.569-278.174-188.14-365.08-142.874-86.908 45.265-34.644 144.247-212.845 129.681-178.201-14.565-365.013 47.587-365.013 188.75z" fill="url(#g)" opacity=".868" transform="translate(-641.679 -476.508)"/></g></g></svg>