<svg width="70" height="59" xmlns="http://www.w3.org/2000/svg"><path d="M67.533 27.3c.738 0 2.584.727 2.461 3.27V58.3H38V29.964c0-.242.37-2.664 2.707-2.664zM43.573.3c.727 0 2.542.725 2.421 3.263v14.016c0 .967-.968 2.417-2.3 2.417h-9.561c-2.663 0-2.663 2.9-2.663 2.9V58.3H0V2.958C0 2.717.363.3 2.663.3zm5.502 45.77h-2.461c-1.354 0-2.461 1.09-2.461 2.421v2.422c0 1.332 1.107 2.422 2.46 2.422h2.462c1.353 0 2.461-1.09 2.461-2.422v-2.422c0-1.332-1.108-2.421-2.461-2.421zm12.305 0h-2.46c-1.354 0-2.462 1.09-2.462 2.421v2.422c0 1.332 1.108 2.422 2.461 2.422h2.461c1.354 0 2.461-1.09 2.461-2.422v-2.422c0-1.332-1.107-2.421-2.46-2.421zm-50.487-1.183h-2.42a2.426 2.426 0 00-2.421 2.417v2.417a2.426 2.426 0 002.42 2.416h2.421a2.426 2.426 0 002.421-2.416v-2.417a2.426 2.426 0 00-2.42-2.417zm13.314 0h-2.42a2.426 2.426 0 00-2.421 2.417v2.417a2.426 2.426 0 002.42 2.416h2.421a2.426 2.426 0 002.421-2.416v-2.417a2.426 2.426 0 00-2.42-2.417zm24.868-11.169h-2.461c-1.354 0-2.461 1.09-2.461 2.422v2.422c0 1.332 1.107 2.422 2.46 2.422h2.462c1.353 0 2.461-1.09 2.461-2.422V36.14c0-1.332-1.108-2.422-2.461-2.422zm12.305 0h-2.46c-1.354 0-2.462 1.09-2.462 2.422v2.422c0 1.332 1.108 2.422 2.461 2.422h2.461c1.354 0 2.461-1.09 2.461-2.422V36.14c0-1.332-1.107-2.422-2.46-2.422zm-50.487-1.276h-2.42a2.426 2.426 0 00-2.421 2.416v2.417c0 1.33 1.09 2.417 2.42 2.417h2.421a2.426 2.426 0 002.421-2.417v-2.417a2.426 2.426 0 00-2.42-2.416zm13.314 0h-2.42a2.426 2.426 0 00-2.421 2.416v2.417c0 1.33 1.09 2.417 2.42 2.417h2.421a2.426 2.426 0 002.421-2.417v-2.417a2.426 2.426 0 00-2.42-2.416zM10.893 20.117h-2.42a2.426 2.426 0 00-2.421 2.416v2.417c0 1.33 1.09 2.417 2.42 2.417h2.421a2.426 2.426 0 002.421-2.417v-2.417a2.426 2.426 0 00-2.42-2.416zm13.314 0h-2.42a2.426 2.426 0 00-2.421 2.416v2.417c0 1.33 1.09 2.417 2.42 2.417h2.421a2.426 2.426 0 002.421-2.417v-2.417a2.426 2.426 0 00-2.42-2.416zM10.893 7.792h-2.42a2.426 2.426 0 00-2.421 2.416v2.417c0 1.33 1.09 2.417 2.42 2.417h2.421a2.426 2.426 0 002.421-2.417v-2.417a2.426 2.426 0 00-2.42-2.416zm13.314 0h-2.42a2.426 2.426 0 00-2.421 2.416v2.417c0 1.33 1.09 2.417 2.42 2.417h2.421a2.426 2.426 0 002.421-2.417v-2.417a2.426 2.426 0 00-2.42-2.416zm13.315 0H35.1a2.426 2.426 0 00-2.42 2.416v2.417a2.425 2.425 0 002.42 2.417h2.42a2.426 2.426 0 002.421-2.417v-2.417a2.425 2.425 0 00-2.42-2.416z" fill="#009A67"/></svg>